<svg width="35" height="32" viewBox="0 0 35 32" fill="none" xmlns="http://www.w3.org/2000/svg">
<g filter="url(#filter0_b_4_23)">
<path d="M32.8125 15C32.8107 13.4092 32.1187 11.8841 30.8884 10.7592C29.6581 9.63433 27.9899 9.00166 26.25 9.00001H20.8086C20.4107 8.97876 13.4777 8.53251 6.87559 3.47001C6.55677 3.2252 6.16816 3.06866 5.75541 3.01877C5.34265 2.96889 4.9229 3.02774 4.54546 3.1884C4.16802 3.34907 3.84857 3.60488 3.62463 3.92578C3.40069 4.24668 3.28157 4.61935 3.28125 5.00001V25C3.28131 25.3808 3.40024 25.7536 3.62408 26.0747C3.84792 26.3958 4.16735 26.6518 4.54484 26.8126C4.92233 26.9734 5.34219 27.0324 5.75507 26.9825C6.16794 26.9327 6.55668 26.7761 6.87559 26.5313C12.0395 22.5713 17.4029 21.4363 19.6875 21.1188V25.0838C19.687 25.4133 19.7757 25.7379 19.9455 26.0286C20.1153 26.3193 20.3611 26.5671 20.6609 26.75L22.1648 27.6663C22.4555 27.8436 22.7885 27.9548 23.1358 27.9903C23.4831 28.0259 23.8347 27.9849 24.1611 27.8707C24.4875 27.7564 24.7792 27.5724 25.0118 27.3339C25.2444 27.0955 25.4112 26.8095 25.498 26.5L27.1072 20.955C28.686 20.763 30.1347 20.0533 31.1841 18.958C32.2335 17.8626 32.8122 16.4561 32.8125 15ZM5.46875 24.9913V5.00001C11.3217 9.48876 17.3127 10.625 19.6875 10.905V19.09C17.3154 19.375 11.3258 20.5088 5.46875 24.9913ZM23.3789 25.9913V26.005L21.875 25.0888V21H24.8281L23.3789 25.9913ZM26.25 19H21.875V11H26.25C27.4103 11 28.5231 11.4214 29.3436 12.1716C30.1641 12.9217 30.625 13.9391 30.625 15C30.625 16.0609 30.1641 17.0783 29.3436 17.8284C28.5231 18.5786 27.4103 19 26.25 19Z" fill="#2BA7CF"/>
</g>
<defs>
<filter id="filter0_b_4_23" x="-4" y="-4" width="43" height="40" filterUnits="userSpaceOnUse" color-interpolation-filters="sRGB">
<feFlood flood-opacity="0" result="BackgroundImageFix"/>
<feGaussianBlur in="BackgroundImageFix" stdDeviation="2"/>
<feComposite in2="SourceAlpha" operator="in" result="effect1_backgroundBlur_4_23"/>
<feBlend mode="normal" in="SourceGraphic" in2="effect1_backgroundBlur_4_23" result="shape"/>
</filter>
</defs>
</svg>
