<svg width="35" height="32" viewBox="0 0 35 32" fill="none" xmlns="http://www.w3.org/2000/svg">
<path d="M16.4062 2V1C16.4062 0.734784 16.5215 0.48043 16.7266 0.292893C16.9317 0.105357 17.2099 0 17.5 0C17.7901 0 18.0683 0.105357 18.2734 0.292893C18.4785 0.48043 18.5938 0.734784 18.5938 1V2C18.5938 2.26522 18.4785 2.51957 18.2734 2.70711C18.0683 2.89464 17.7901 3 17.5 3C17.2099 3 16.9317 2.89464 16.7266 2.70711C16.5215 2.51957 16.4062 2.26522 16.4062 2ZM27.3438 6C27.4874 6.0001 27.6297 5.97432 27.7625 5.92414C27.8953 5.87395 28.0159 5.80033 28.1176 5.7075L29.2113 4.7075C29.4166 4.51986 29.5319 4.26536 29.5319 4C29.5319 3.73464 29.4166 3.48014 29.2113 3.2925C29.0061 3.10486 28.7277 2.99944 28.4375 2.99944C28.1473 2.99944 27.8689 3.10486 27.6637 3.2925L26.5699 4.2925C26.4168 4.43236 26.3125 4.61061 26.2702 4.80469C26.2279 4.99878 26.2496 5.19997 26.3324 5.38279C26.4153 5.56561 26.5556 5.72185 26.7356 5.83172C26.9157 5.94159 27.1273 6.00016 27.3438 6ZM6.88242 5.7075C6.98404 5.80041 7.10468 5.87411 7.23746 5.92439C7.37023 5.97468 7.51254 6.00056 7.65625 6.00056C7.79996 6.00056 7.94227 5.97468 8.07504 5.92439C8.20782 5.87411 8.32846 5.80041 8.43008 5.7075C8.5317 5.61459 8.61231 5.50429 8.6673 5.3829C8.7223 5.2615 8.75061 5.13139 8.75061 5C8.75061 4.86861 8.7223 4.7385 8.6673 4.6171C8.61231 4.49571 8.5317 4.38541 8.43008 4.2925L7.33633 3.2925C7.1311 3.10486 6.85274 2.99944 6.5625 2.99944C6.27226 2.99944 5.9939 3.10486 5.78867 3.2925C5.58344 3.48014 5.46814 3.73464 5.46814 4C5.46814 4.26536 5.58344 4.51986 5.78867 4.7075L6.88242 5.7075ZM18.777 9.01375C18.6347 8.99075 18.4888 8.99374 18.3478 9.02257C18.2068 9.05139 18.0735 9.10548 17.9554 9.1817C17.8374 9.25791 17.7371 9.35475 17.6603 9.46662C17.5834 9.57849 17.5316 9.70317 17.5077 9.83346C17.4839 9.96375 17.4885 10.0971 17.5213 10.2257C17.5542 10.3544 17.6146 10.4758 17.699 10.583C17.7835 10.6902 17.8903 10.781 18.0134 10.8502C18.1364 10.9194 18.2733 10.9657 18.416 10.9862C21.0096 11.385 22.9688 13.54 22.9688 16C22.9688 16.2652 23.084 16.5196 23.2891 16.7071C23.4942 16.8946 23.7724 17 24.0625 17C24.3526 17 24.6308 16.8946 24.8359 16.7071C25.041 16.5196 25.1562 16.2652 25.1562 16C25.1562 12.575 22.4123 9.57125 18.7742 9.01375H18.777ZM31.7188 22V25C31.7188 25.5304 31.4883 26.0391 31.078 26.4142C30.6678 26.7893 30.1114 27 29.5312 27H5.46875C4.88859 27 4.33219 26.7893 3.92195 26.4142C3.51172 26.0391 3.28125 25.5304 3.28125 25V22C3.28125 21.4696 3.51172 20.9609 3.92195 20.5858C4.33219 20.2107 4.88859 20 5.46875 20V16C5.4687 14.5484 5.78291 13.1111 6.39326 11.771C7.0036 10.431 7.89802 9.21461 9.02495 8.19207C10.1519 7.16952 11.489 6.36102 12.9593 5.81316C14.4296 5.26531 16.0039 4.98895 17.5916 5C24.1746 5.045 29.5312 10.0363 29.5312 16.125V20C30.1114 20 30.6678 20.2107 31.078 20.5858C31.4883 20.9609 31.7188 21.4696 31.7188 22ZM7.65625 20H27.3438V16.125C27.3438 11.125 22.9619 7.03625 17.5752 7H17.5C14.8893 7 12.3855 7.94821 10.5394 9.63604C8.69336 11.3239 7.65625 13.6131 7.65625 16V20ZM29.5312 25V22H5.46875V25H29.5312Z" fill="#2BA7CF"/>
</svg>
