<svg width="36" height="32" viewBox="0 0 36 32" fill="none" xmlns="http://www.w3.org/2000/svg">
<path d="M25.875 6H19.125V3H23.625C23.9234 3 24.2095 2.89464 24.4205 2.70711C24.6315 2.51957 24.75 2.26522 24.75 2C24.75 1.73478 24.6315 1.48043 24.4205 1.29289C24.2095 1.10536 23.9234 1 23.625 1H12.375C12.0766 1 11.7905 1.10536 11.5795 1.29289C11.3685 1.48043 11.25 1.73478 11.25 2C11.25 2.26522 11.3685 2.51957 11.5795 2.70711C11.7905 2.89464 12.0766 3 12.375 3H16.875V6H10.125C8.93153 6 7.78693 6.42143 6.94302 7.17157C6.09911 7.92172 5.625 8.93913 5.625 10V23C5.625 24.0609 6.09911 25.0783 6.94302 25.8284C7.78693 26.5786 8.93153 27 10.125 27H11.25L9.225 29.4C9.13636 29.5051 9.07186 29.6246 9.0352 29.7518C8.99853 29.879 8.99041 30.0114 9.01131 30.1414C9.0322 30.2714 9.0817 30.3965 9.15697 30.5095C9.23224 30.6225 9.33181 30.7212 9.45 30.8C9.56819 30.8788 9.70268 30.9361 9.8458 30.9687C9.98891 31.0013 10.1378 31.0085 10.2841 30.99C10.4304 30.9714 10.5711 30.9274 10.6982 30.8605C10.8253 30.7936 10.9364 30.7051 11.025 30.6L14.0625 27H21.9375L24.975 30.6C25.154 30.8122 25.4205 30.9524 25.7159 30.99C26.0113 31.0275 26.3113 30.9591 26.55 30.8C26.7887 30.6409 26.9465 30.404 26.9887 30.1414C27.0309 29.8789 26.954 29.6122 26.775 29.4L24.75 27H25.875C27.0685 27 28.2131 26.5786 29.057 25.8284C29.9009 25.0783 30.375 24.0609 30.375 23V10C30.375 8.93913 29.9009 7.92172 29.057 7.17157C28.2131 6.42143 27.0685 6 25.875 6ZM10.125 8H25.875C26.4717 8 27.044 8.21071 27.466 8.58579C27.8879 8.96086 28.125 9.46957 28.125 10V15H7.875V10C7.875 9.46957 8.11205 8.96086 8.53401 8.58579C8.95597 8.21071 9.52826 8 10.125 8ZM25.875 25H10.125C9.52826 25 8.95597 24.7893 8.53401 24.4142C8.11205 24.0391 7.875 23.5304 7.875 23V17H28.125V23C28.125 23.5304 27.8879 24.0391 27.466 24.4142C27.044 24.7893 26.4717 25 25.875 25ZM13.5 21.5C13.5 21.7967 13.401 22.0867 13.2156 22.3334C13.0302 22.58 12.7666 22.7723 12.4583 22.8858C12.1499 22.9993 11.8106 23.0291 11.4833 22.9712C11.1559 22.9133 10.8553 22.7704 10.6193 22.5607C10.3833 22.3509 10.2225 22.0836 10.1574 21.7926C10.0923 21.5017 10.1257 21.2001 10.2535 20.926C10.3812 20.6519 10.5975 20.4176 10.875 20.2528C11.1525 20.088 11.4787 20 11.8125 20C12.2601 20 12.6893 20.158 13.0057 20.4393C13.3222 20.7206 13.5 21.1022 13.5 21.5ZM25.875 21.5C25.875 21.7967 25.776 22.0867 25.5906 22.3334C25.4052 22.58 25.1416 22.7723 24.8333 22.8858C24.5249 22.9993 24.1856 23.0291 23.8583 22.9712C23.5309 22.9133 23.2303 22.7704 22.9943 22.5607C22.7583 22.3509 22.5975 22.0836 22.5324 21.7926C22.4673 21.5017 22.5007 21.2001 22.6285 20.926C22.7562 20.6519 22.9725 20.4176 23.25 20.2528C23.5275 20.088 23.8537 20 24.1875 20C24.6351 20 25.0643 20.158 25.3807 20.4393C25.6972 20.7206 25.875 21.1022 25.875 21.5Z" fill="#2BA7CF"/>
</svg>
