<svg width="14" height="14" viewBox="0 0 14 14" fill="none" xmlns="http://www.w3.org/2000/svg">
<path d="M11.247 6.43453C11.2064 6.4752 11.1581 6.50747 11.105 6.52949C11.0519 6.55151 10.995 6.56284 10.9375 6.56284C10.88 6.56284 10.8231 6.55151 10.77 6.52949C10.7169 6.50747 10.6686 6.4752 10.628 6.43453L7.4375 3.24351V11.8125C7.4375 11.9285 7.39141 12.0398 7.30936 12.1219C7.22731 12.2039 7.11603 12.25 7 12.25C6.88397 12.25 6.77269 12.2039 6.69064 12.1219C6.60859 12.0398 6.5625 11.9285 6.5625 11.8125V3.24351L3.37203 6.43453C3.28994 6.51662 3.1786 6.56274 3.0625 6.56274C2.9464 6.56274 2.83506 6.51662 2.75297 6.43453C2.67088 6.35243 2.62476 6.24109 2.62476 6.12499C2.62476 6.0089 2.67088 5.89755 2.75297 5.81546L6.69047 1.87796C6.7311 1.83728 6.77935 1.80502 6.83246 1.783C6.88557 1.76098 6.9425 1.74965 7 1.74965C7.05749 1.74965 7.11442 1.76098 7.16754 1.783C7.22065 1.80502 7.2689 1.83728 7.30953 1.87796L11.247 5.81546C11.2877 5.85609 11.32 5.90435 11.342 5.95746C11.364 6.01057 11.3753 6.0675 11.3753 6.12499C11.3753 6.18249 11.364 6.23942 11.342 6.29253C11.32 6.34564 11.2877 6.39389 11.247 6.43453Z" fill="#343330"/>
</svg>
