<svg width="35" height="32" viewBox="0 0 35 32" fill="none" xmlns="http://www.w3.org/2000/svg">
<path d="M28.4375 4H25.1562V3C25.1562 2.73478 25.041 2.48043 24.8359 2.29289C24.6308 2.10536 24.3526 2 24.0625 2C23.7724 2 23.4942 2.10536 23.2891 2.29289C23.084 2.48043 22.9688 2.73478 22.9688 3V4H12.0312V3C12.0312 2.73478 11.916 2.48043 11.7109 2.29289C11.5058 2.10536 11.2276 2 10.9375 2C10.6474 2 10.3692 2.10536 10.1641 2.29289C9.95898 2.48043 9.84375 2.73478 9.84375 3V4H6.5625C5.98234 4 5.42594 4.21071 5.0157 4.58579C4.60547 4.96086 4.375 5.46957 4.375 6V26C4.375 26.5304 4.60547 27.0391 5.0157 27.4142C5.42594 27.7893 5.98234 28 6.5625 28H28.4375C29.0177 28 29.5741 27.7893 29.9843 27.4142C30.3945 27.0391 30.625 26.5304 30.625 26V6C30.625 5.46957 30.3945 4.96086 29.9843 4.58579C29.5741 4.21071 29.0177 4 28.4375 4ZM9.84375 6V7C9.84375 7.26522 9.95898 7.51957 10.1641 7.70711C10.3692 7.89464 10.6474 8 10.9375 8C11.2276 8 11.5058 7.89464 11.7109 7.70711C11.916 7.51957 12.0312 7.26522 12.0312 7V6H22.9688V7C22.9688 7.26522 23.084 7.51957 23.2891 7.70711C23.4942 7.89464 23.7724 8 24.0625 8C24.3526 8 24.6308 7.89464 24.8359 7.70711C25.041 7.51957 25.1562 7.26522 25.1562 7V6H28.4375V10H6.5625V6H9.84375ZM28.4375 26H6.5625V12H28.4375V26ZM23.1957 15.2925C23.2974 15.3854 23.3781 15.4957 23.4331 15.6171C23.4882 15.7385 23.5165 15.8686 23.5165 16C23.5165 16.1314 23.4882 16.2615 23.4331 16.3829C23.3781 16.5043 23.2974 16.6146 23.1957 16.7075L16.6332 22.7075C16.5316 22.8005 16.411 22.8742 16.2782 22.9246C16.1454 22.9749 16.0031 23.0008 15.8594 23.0008C15.7156 23.0008 15.5733 22.9749 15.4405 22.9246C15.3078 22.8742 15.1871 22.8005 15.0855 22.7075L11.8043 19.7075C11.5991 19.5199 11.4838 19.2654 11.4838 19C11.4838 18.7346 11.5991 18.4801 11.8043 18.2925C12.0095 18.1049 12.2879 17.9994 12.5781 17.9994C12.8684 17.9994 13.1467 18.1049 13.352 18.2925L15.8594 20.5863L21.648 15.2925C21.7496 15.1995 21.8703 15.1258 22.003 15.0754C22.1358 15.0251 22.2781 14.9992 22.4219 14.9992C22.5656 14.9992 22.7079 15.0251 22.8407 15.0754C22.9735 15.1258 23.0941 15.1995 23.1957 15.2925Z" fill="black"/>
</svg>
