<svg width="12" height="12" viewBox="0 0 12 12" fill="none" xmlns="http://www.w3.org/2000/svg">
<path d="M6 1.125C5.03582 1.125 4.09329 1.41091 3.2916 1.94659C2.48991 2.48226 1.86507 3.24363 1.49609 4.13442C1.12711 5.02521 1.03057 6.00541 1.21867 6.95107C1.40678 7.89672 1.87108 8.76536 2.55286 9.44715C3.23464 10.1289 4.10328 10.5932 5.04894 10.7813C5.99459 10.9694 6.97479 10.8729 7.86558 10.5039C8.75637 10.1349 9.51775 9.51009 10.0534 8.7084C10.5891 7.90671 10.875 6.96418 10.875 6C10.8736 4.70749 10.3596 3.46831 9.44564 2.55436C8.5317 1.64042 7.29251 1.12636 6 1.125ZM6 10.125C5.18415 10.125 4.38663 9.88307 3.70827 9.42981C3.02992 8.97655 2.50121 8.33231 2.189 7.57857C1.87679 6.82482 1.7951 5.99542 1.95426 5.19525C2.11343 4.39508 2.5063 3.66008 3.08319 3.08318C3.66008 2.50629 4.39508 2.11342 5.19525 1.95426C5.99543 1.7951 6.82483 1.87679 7.57857 2.189C8.33232 2.50121 8.97655 3.02992 9.42981 3.70827C9.88307 4.38663 10.125 5.18415 10.125 6C10.1238 7.09364 9.68877 8.14213 8.91545 8.91545C8.14213 9.68876 7.09364 10.1238 6 10.125ZM8.14032 4.98469C8.17518 5.01951 8.20284 5.06087 8.22171 5.1064C8.24058 5.15192 8.2503 5.20072 8.2503 5.25C8.2503 5.29928 8.24058 5.34808 8.22171 5.3936C8.20284 5.43913 8.17518 5.48049 8.14032 5.51531L6.26532 7.39031C6.23049 7.42518 6.18913 7.45284 6.1436 7.47171C6.09808 7.49058 6.04928 7.50029 6 7.50029C5.95072 7.50029 5.90192 7.49058 5.8564 7.47171C5.81088 7.45284 5.76952 7.42518 5.73469 7.39031L3.85969 5.51531C3.78932 5.44495 3.74979 5.34951 3.74979 5.25C3.74979 5.15049 3.78932 5.05505 3.85969 4.98469C3.93005 4.91432 4.02549 4.87479 4.125 4.87479C4.22451 4.87479 4.31995 4.91432 4.39031 4.98469L6 6.59484L7.60969 4.98469C7.64452 4.94982 7.68588 4.92216 7.7314 4.90329C7.77692 4.88442 7.82572 4.8747 7.875 4.8747C7.92428 4.8747 7.97308 4.88442 8.0186 4.90329C8.06413 4.92216 8.10549 4.94982 8.14032 4.98469Z" fill="#343330"/>
</svg>
