<svg width="12" height="12" viewBox="0 0 12 12" fill="none" xmlns="http://www.w3.org/2000/svg">
<path d="M10.8937 5.36672L4.14 1.23516C4.02613 1.16544 3.89572 1.12737 3.76222 1.1249C3.62873 1.12243 3.49699 1.15564 3.38063 1.2211C3.26536 1.28554 3.16935 1.37953 3.10245 1.49338C3.03556 1.60724 3.00019 1.73686 3 1.86891V10.1311C3.00087 10.3292 3.08036 10.5188 3.221 10.6583C3.36164 10.7978 3.55191 10.8758 3.75 10.875C3.88826 10.8749 4.02383 10.8368 4.14188 10.7648L10.8937 6.63329C11.0023 6.56714 11.092 6.47418 11.1542 6.36336C11.2164 6.25254 11.2491 6.12758 11.2491 6.00047C11.2491 5.87337 11.2164 5.74841 11.1542 5.63758C11.092 5.52676 11.0023 5.43381 10.8937 5.36766V5.36672ZM3.75 10.1222V1.87501L10.492 6L3.75 10.1222Z" fill="#343330"/>
</svg>
